<svg width="244" height="120" viewBox="0 0 244 120" fill="none" xmlns="http://www.w3.org/2000/svg">
<g id="Buttons">
<path id="Power button" d="M241.905 49.2237H242.768C243.246 49.2237 243.632 49.612 243.632 50.0911V106.763C243.632 107.243 243.246 107.631 242.768 107.631H241.905V49.2237Z" fill="#303030"/>
<path id="Volume down" d="M1.72732 119.775L0.863368 119.775C0.386224 119.775 -0.000577416 119.387 -0.000577374 118.908L-0.000574403 84.7884C-0.000574362 84.3094 0.386228 83.921 0.863372 83.921L1.72732 83.921L1.72732 119.775Z" fill="#303030"/>
<path id="Volumn up" d="M1.72732 72.3552L0.863368 72.3552C0.386224 72.3552 -0.000577416 71.9668 -0.000577374 71.4877L-0.000574403 37.3686C-0.000574362 36.8896 0.386228 36.5012 0.863372 36.5012L1.72732 36.5012L1.72732 72.3552Z" fill="#333333"/>
<path id="Mute" d="M1.72717 19.1526L0.863226 19.1526C0.386082 19.1526 -0.00072011 18.7642 -0.000720068 18.2852L-0.000718608 1.51476C-0.000718566 1.03569 0.386083 0.647331 0.863227 0.647331L1.72717 0.647331L1.72717 19.1526Z" fill="#333333"/>
</g>
</svg>
