<svg width="10" height="11" viewBox="0 0 10 11" fill="none" xmlns="http://www.w3.org/2000/svg">
<g id="Camera">
<path id="Oval" fill-rule="evenodd" clip-rule="evenodd" d="M5.29498 10.1316C7.83974 10.1316 9.90269 8.06033 9.90269 5.50528C9.90269 2.95024 7.83974 0.878967 5.29498 0.878967C2.75021 0.878967 0.687271 2.95024 0.687271 5.50528C0.687271 8.06033 2.75021 10.1316 5.29498 10.1316Z" fill="#262C2D"/>
<path id="Oval_2" fill-rule="evenodd" clip-rule="evenodd" d="M5.29449 8.39673C6.88497 8.39673 8.17431 7.10218 8.17431 5.50528C8.17431 3.90838 6.88497 2.61383 5.29449 2.61383C3.70401 2.61383 2.41467 3.90838 2.41467 5.50528C2.41467 7.10218 3.70401 8.39673 5.29449 8.39673Z" fill="#121515"/>
<path id="Oval_3" opacity="0.4" fill-rule="evenodd" clip-rule="evenodd" d="M5.29533 4.9275C5.61357 4.9275 5.87156 4.66847 5.87156 4.34894C5.87156 4.02941 5.61357 3.77039 5.29533 3.77039C4.97709 3.77039 4.7191 4.02941 4.7191 4.34894C4.7191 4.66847 4.97709 4.9275 5.29533 4.9275Z" fill="#636F73"/>
</g>
</svg>
